Coordinates
version=1
nRows=12
nColumns=33
inDegrees=yes

Units are S.I. units (second, meters, Newtons, ...)
Angles are in degrees.

endheader
time	ground_thorax_rot_x	ground_thorax_rot_y	ground_thorax_rot_z	ground_thorax_tx	ground_thorax_ty	ground_thorax_tz	clav_prot_r	clav_elev_r	scapula_abduction_r	scapula_elevation_r	scapula_upward_rot_r	scapula_winging_r	shoulder_elv_r	plane_of_elev_r	axial_rot_r	elbow_flexion_r	pro_sup_r	wrist_flex_r	wrist_dev_r	clav_prot_l	clav_elev_l	scapula_abduction_l	scapula_elevation_l	scapula_upward_rot_l	scapula_winging_l	shoulder_elv_l	plane_of_elev_l	axial_rot_l	elbow_flexion_l	pro_sup_l	wrist_flex_l	wrist_dev_l
      7.02000000	     33.02415608	     21.89114424	     30.13786856	   -208.56065770	    819.55234155	      7.80474151	     12.56328377	     38.49070188	     37.62017082	     45.00000000	    -35.57003449	   2069.61784095	  -1192.46148502	    146.61129316	   -127.32236543	   1459.54088458	     86.17157522	     15.11069254	      0.75414409	      8.71579683	    -45.00000000	    -37.01860018	     45.00000000	    -45.00000000	  -2421.05505186	   1516.13596471	     22.47270000	    -48.54564096	   1450.49682463	      9.08643721	      6.41462347	    -19.46611261
      7.03000000	     32.73019439	     22.35399596	     30.70446807	   -204.86449419	    818.34130748	      7.78357582	     12.24691344	     38.52729054	     37.56362229	     45.00000000	    -36.03891999	   2069.51317536	  -1192.59799722	    146.25539990	   -128.24300687	   1459.40579195	     85.09738602	     15.56523916	      0.87555274	      8.60454790	    -45.00000000	    -37.04766789	     45.00000000	    -45.00000000	  -2421.10151279	   1515.97865462	     22.67840306	    -49.17495584	   1450.54792721	      9.17373100	      6.33862615	    -19.53434282
      7.04000000	     32.41516553	     22.72385042	     31.45351432	   -201.08518570	    817.07069607	      7.76161626	     12.59613896	     38.62786170	     37.64340222	     45.00000000	    -36.13973000	   2069.81657495	  -1192.65102433	    146.38842442	   -128.47016904	   1459.22470112	     83.27673560	     15.91510665	      0.95358292	      8.25523061	    -45.00000000	    -37.04426023	     45.00000000	    -45.00000000	  -2421.36394246	   1515.85991444	     22.48511893	    -48.97184948	   1450.47863546	      9.18057024	      6.63078298	    -19.48472417
      7.05000000	     32.12024634	     23.18890646	     32.08971255	   -197.22776150	    815.74632851	      7.73917859	     12.62871510	     38.67258546	     37.58850623	     45.00000000	    -36.06593142	   2069.88451985	  -1192.84884023	    146.38335097	   -128.63293955	   1458.96163143	     80.98618317	     16.29445707	      1.09426661	      8.21747482	    -45.00000000	    -37.02041839	     45.00000000	    -45.00000000	  -2421.58670415	   1515.67360257	     22.47428081	    -49.01599952	   1450.47305156	      9.21925558	      6.83790127	    -19.42919324
      7.06000000	     31.75094441	     23.79092508	     32.89242118	   -193.28731622	    814.36842662	      7.71568194	     11.32600965	     38.24360783	     37.20959815	     45.00000000	    -35.90169187	   2070.21221082	  -1192.78456187	    146.43848105	   -129.03903042	   1458.70355182	     79.03390690	     16.76059813	      1.33704014	      9.27018367	    -45.00000000	    -37.19288704	     45.00000000	    -45.00000000	  -2421.44319261	   1515.18493652	     22.73729017	    -49.45192634	   1450.36845942	      9.36318211	      7.08141564	    -19.33384118
      7.07000000	     31.45942937	     24.09019381	     33.44043239	   -189.27451462	    812.93919239	      7.69002413	     12.21781333	     38.47593077	     37.30101679	     45.00000000	    -36.17600473	   2070.10428238	  -1193.19473947	    146.14083857	   -129.24472041	   1458.44510126	     76.28411999	     17.10964175	      1.54039650	      8.63716080	    -45.00000000	    -37.11073342	     45.00000000	    -45.00000000	  -2421.79238156	   1515.20616159	     22.57175382	    -49.61720138	   1450.40169762	      9.51511136	      7.27089216	    -19.29669256
      7.08000000	     31.18988122	     24.45667180	     34.20492587	   -185.18820224	    811.45675910	      7.65924931	     13.06206538	     38.75771630	     37.63919561	     45.00000000	    -36.33681007	   2070.35178871	  -1193.35211519	    146.47352080	   -129.45905094	   1457.97382914	     72.06764428	     17.60673456	      1.88659202	      7.87405341	    -45.00000000	    -36.91457724	     45.00000000	    -45.00000000	  -2422.19332314	   1515.11584545	     22.24428684	    -49.49044847	   1450.34193911	      9.77254692	      7.50306802	    -19.23234794
      7.09000000	     30.96858862	     24.77785491	     34.55911185	   -181.03970789	    809.92211002	      7.62087040	     12.45500107	     38.92842215	     37.38368210	     45.00000000	    -36.31344395	   2070.62362678	  -1193.85184616	    146.67406103	   -128.80184435	   1453.40272253	     24.05822721	     19.85005844	      7.30807591	      7.85912433	    -45.00000000	    -37.01968751	     45.00000000	    -45.00000000	  -2422.67505932	   1514.92186811	     22.20711210	    -48.30594477	   1450.38241801	     12.32554932	      7.43727430	    -19.35236593
      7.10000000	     30.35704831	     25.54309226	     35.79648718	   -176.81839418	    808.33157483	      7.56971191	     12.43359960	     38.49088710	     37.14112678	     45.00000000	    -36.67196387	   2070.66257518	  -1194.12950174	    146.55938665	   -127.89849340	   1453.28912648	     23.62675639	     19.65988918	      7.25284279	      8.52747077	    -45.00000000	    -37.07615645	     45.00000000	    -45.00000000	  -2422.37549761	   1514.54240918	     22.25228353	    -50.10831682	   1450.33453822	     12.45996689	      7.64124478	    -19.23530134
      7.11000000	     29.98636528	     25.94205694	     36.61667190	   -172.53822556	    806.68636259	      7.50894779	     12.98428715	     38.59713851	     37.19647620	     45.00000000	    -36.73434145	   2071.04871289	  -1194.30379043	    146.90561789	   -127.75640642	   1453.24873463	     23.03422600	     19.63731984	      7.58996814	      7.92606510	    -45.00000000	    -36.85454424	     45.00000000	    -45.00000000	  -2422.61844802	   1514.41417517	     22.06983573	    -50.44680207	   1450.17180756	     12.52574827	      7.91032365	    -19.12032359
      7.12000000	     29.47860424	     26.55286844	     37.60373483	   -168.19482187	    804.98837846	      7.44214314	     12.25714367	     38.31849149	     36.83532379	     45.00000000	    -37.03732045	   2071.11172429	  -1194.56291241	    146.59463300	   -127.63500699	   1453.06176764	     22.64118953	     19.53221268	      7.94606950	      8.75808705	    -45.00000000	    -37.04878421	     45.00000000	    -45.00000000	  -2422.56911728	   1513.98392086	     21.97385754	    -51.33659057	   1450.07872293	     12.80533943	      8.08495582	    -19.04255161
      7.13000000	     28.99578692	     27.08915671	     38.54463105	   -163.78859994	    803.24142755	      7.37772359	     12.30382933	     38.25959749	     36.71417886	     45.00000000	    -37.32030511	   2071.30269460	  -1194.79155472	    146.63319309	   -127.50297458	   1452.96370324	     22.29717385	     19.45824760	      8.26760345	      8.73546314	    -45.00000000	    -36.97787303	     45.00000000	    -45.00000000	  -2422.66358208	   1513.71425259	     21.81716876	    -52.02385229	   1450.01657933	     13.15635832	      8.26808988	    -18.97000748
